<svg width="505" height="587" viewBox="0 0 505 587" fill="none" xmlns="http://www.w3.org/2000/svg">
<path d="M252.483 586.787C113.041 586.787 1.67687e-06 522.571 1.67687e-06 443.357C1.67687e-06 364.142 113.041 299.926 252.483 299.926C391.926 299.926 504.967 364.142 504.967 443.357C504.967 522.571 391.926 586.787 252.483 586.787Z" fill="#F5F5F5"/>
<path d="M147.415 533.792L335.884 424.97C337.542 424.015 338.919 422.639 339.877 420.983C340.834 419.326 341.338 417.446 341.338 415.533C341.338 413.619 340.834 411.74 339.877 410.083C338.919 408.426 337.542 407.051 335.884 406.096L317.292 394.372C314.083 392.523 310.444 391.551 306.741 391.551C303.037 391.551 299.398 392.523 296.189 394.372L107.695 503.207C106.037 504.162 104.66 505.537 103.702 507.194C102.745 508.851 102.241 510.73 102.241 512.644C102.241 514.557 102.745 516.437 103.702 518.094C104.66 519.75 106.037 521.126 107.695 522.081L126.287 533.792C129.497 535.65 133.141 536.629 136.851 536.629C140.561 536.629 144.205 535.65 147.415 533.792Z" fill="#E0E0E0"/>
<path d="M433.982 434.58C411.394 434.58 393.082 424.064 393.082 411.093C393.082 398.122 411.394 387.607 433.982 387.607C456.57 387.607 474.882 398.122 474.882 411.093C474.882 424.064 456.57 434.58 433.982 434.58Z" fill="#E6E6E6"/>
<path d="M80.582 439.961L62.6435 450.276C62.6435 450.276 71.8049 421.485 66.9231 392.463C65.078 381.495 61.1188 376.049 59.7349 373.115C58.3511 370.181 47.6265 352.05 57.1723 343.747C66.7181 335.444 88.9233 352.14 87.7189 396.819C87.1713 411.444 84.7733 425.94 80.582 439.961Z" fill="#ED5831"/>
<path opacity="0.5" d="M80.582 439.961L62.6435 450.276C62.6435 450.276 71.8049 421.485 66.9231 392.463C65.078 381.495 61.1188 376.049 59.7349 373.115C58.3511 370.181 47.6265 352.05 57.1723 343.747C66.7181 335.444 88.9233 352.14 87.7189 396.819C87.1713 411.444 84.7733 425.94 80.582 439.961Z" fill="black"/>
<path d="M72.2406 445.394C72.3711 445.397 72.4993 445.359 72.6073 445.285C72.7152 445.212 72.7975 445.106 72.8428 444.984C72.9069 444.792 79.7619 426.059 79.5441 395.948C79.3263 365.837 63.502 349.487 63.3483 349.334C63.2887 349.274 63.2179 349.226 63.1398 349.193C63.0617 349.161 62.978 349.144 62.8934 349.144C62.8088 349.144 62.7251 349.161 62.647 349.193C62.569 349.226 62.4981 349.274 62.4385 349.334C62.3785 349.393 62.3308 349.464 62.2983 349.542C62.2658 349.62 62.249 349.704 62.249 349.789C62.249 349.873 62.2658 349.957 62.2983 350.035C62.3308 350.113 62.3785 350.184 62.4385 350.243C62.5923 350.397 78.045 366.26 78.2628 395.961C78.4806 425.662 71.7152 444.369 71.6384 444.548C71.5807 444.708 71.5888 444.884 71.6609 445.038C71.7329 445.192 71.8631 445.311 72.0228 445.368C72.0932 445.39 72.167 445.399 72.2406 445.394Z" fill="white"/>
<path d="M73.0991 444.369L48.5747 458.463C46.0193 459.974 42.9886 460.466 40.0867 459.841C37.1847 459.217 34.6247 457.522 32.917 455.094C31.2937 452.568 30.6089 449.552 30.9822 446.573C32.161 433.836 37.6963 430.902 30.9181 425.226C24.14 419.55 22.3718 419.153 22.7562 413.694C23.1406 408.236 26.8692 405.852 28.6374 403.7C30.4056 401.547 35.3003 397.037 31.9688 390.374C28.6374 383.711 24.0887 377.266 30.9822 374.319C35.0953 372.551 41.9503 374.909 46.4605 379.803C50.9708 384.698 54.6866 388.222 59.0046 389.4C63.3227 390.579 72.3175 390.771 71.9331 398.216C71.5487 405.66 69.5755 408.21 71.3437 411.529C74.6751 417.73 89.1668 421.254 73.0991 444.369Z" fill="#ED5831"/>
<path d="M60.9779 451.954C61.1376 451.949 61.2902 451.887 61.4078 451.779C61.5254 451.671 61.6002 451.524 61.6185 451.365C61.6185 450.929 65.3856 406.955 35.1465 377.689C35.0218 377.586 34.8628 377.534 34.7014 377.544C34.54 377.553 34.3881 377.623 34.2762 377.74C34.1643 377.857 34.1007 378.012 34.0982 378.173C34.0956 378.335 34.1543 378.492 34.2624 378.612C64.0658 407.454 60.3756 450.814 60.3372 451.25C60.3229 451.418 60.3754 451.584 60.4834 451.714C60.5913 451.844 60.746 451.925 60.9138 451.942L60.9779 451.954Z" fill="white"/>
<path d="M56.1217 414.104C56.283 414.105 56.4387 414.044 56.5575 413.935C56.6762 413.826 56.7494 413.676 56.7623 413.515C57.0306 410.107 57.9904 406.789 59.5832 403.765C61.1759 400.74 63.3682 398.072 66.0262 395.922C66.0955 395.874 66.1545 395.812 66.1998 395.74C66.2451 395.669 66.2757 395.589 66.29 395.506C66.3043 395.422 66.302 395.337 66.2831 395.255C66.2642 395.172 66.2292 395.094 66.18 395.025C66.1326 394.956 66.072 394.898 66.0016 394.853C65.9313 394.808 65.8526 394.777 65.7703 394.763C65.6879 394.748 65.6036 394.751 65.5221 394.769C65.4406 394.788 65.3637 394.823 65.2959 394.872C62.4633 397.118 60.1283 399.928 58.4387 403.124C56.7492 406.32 55.742 409.832 55.481 413.438C55.4667 413.609 55.5206 413.779 55.631 413.911C55.7413 414.043 55.8992 414.126 56.0704 414.143L56.1217 414.104Z" fill="white"/>
<path d="M58.2102 421.651C58.3651 421.653 58.5153 421.598 58.633 421.497C58.7601 421.384 58.838 421.226 58.85 421.056C58.8619 420.886 58.8071 420.718 58.6971 420.588C58.3896 420.229 50.817 411.875 33.0708 414.091C32.9027 414.114 32.7502 414.202 32.647 414.336C32.5437 414.471 32.4979 414.641 32.5198 414.809C32.5422 414.978 32.6298 415.132 32.7638 415.237C32.8979 415.342 33.0678 415.391 33.2373 415.373C50.2788 413.233 57.672 421.356 57.7489 421.433C57.8072 421.499 57.8782 421.552 57.9574 421.589C58.0367 421.627 58.1226 421.648 58.2102 421.651Z" fill="white"/>
<path d="M153.156 520.787L318.907 425.085C330.605 418.333 340.087 400.215 340.087 384.621L340.087 29.6964C340.087 14.1028 330.605 6.94024 318.907 13.6928L153.156 109.394C141.457 116.147 131.976 134.265 131.976 149.858L131.976 504.783C131.976 520.364 141.457 527.539 153.156 520.787Z" fill="#455A64"/>
<path d="M134.064 98.234L299.828 2.53247C304.825 -0.35049 309.412 -0.683633 313.038 1.08458C313.482 1.3069 313.91 1.55949 314.32 1.84056L332.899 12.6421C329.157 10.3998 324.263 10.5663 318.894 13.6671L153.143 109.369C141.445 116.121 131.963 134.239 131.963 149.833L131.963 504.757C131.963 513.009 134.615 518.852 138.843 521.619L120.508 510.946C115.831 508.46 112.82 502.374 112.82 493.648L112.82 138.724C112.82 123.104 122.366 104.987 134.064 98.234Z" fill="#37474F"/>
<path d="M131.976 149.833L131.976 504.757C131.976 513.009 134.628 518.852 138.856 521.619L120.508 510.946C115.831 508.46 112.82 502.374 112.82 493.648L112.82 138.724L131.912 149.807L131.976 149.833Z" fill="#263238"/>
<path d="M112.884 166.259L131.976 177.278V185.889L112.884 174.857V166.259Z" fill="#37474F"/>
<path d="M121.251 223.521C122.955 224.508 124.339 223.457 124.339 221.189V202.674C124.322 201.517 124.033 200.38 123.497 199.354C122.961 198.328 122.191 197.442 121.251 196.767C119.547 195.781 118.163 196.767 118.163 199.099V217.614C118.18 218.772 118.469 219.909 119.005 220.935C119.541 221.961 120.31 222.846 121.251 223.521Z" fill="#37474F"/>
<path d="M124.352 221.24V202.674C124.334 201.517 124.046 200.379 123.51 199.354C122.974 198.328 122.204 197.442 121.264 196.767C120.983 196.571 120.655 196.451 120.314 196.419C119.972 196.388 119.628 196.446 119.316 196.588L121.635 195.396C121.953 195.244 122.304 195.177 122.655 195.204C123.006 195.231 123.344 195.351 123.634 195.55C124.576 196.225 125.346 197.11 125.885 198.136C126.423 199.162 126.714 200.299 126.735 201.457V219.959C126.783 220.426 126.712 220.898 126.528 221.331C126.344 221.763 126.054 222.142 125.684 222.432L123.263 223.713C123.648 223.436 123.952 223.06 124.144 222.625C124.335 222.19 124.407 221.712 124.352 221.24Z" fill="#455A64"/>
<path d="M121.251 268.329C122.955 269.315 124.339 268.329 124.339 265.997V247.482C124.321 246.325 124.032 245.188 123.496 244.162C122.959 243.136 122.191 242.25 121.251 241.575C119.547 240.588 118.163 241.575 118.163 243.92V262.422C118.178 263.58 118.466 264.718 119.002 265.744C119.539 266.77 120.309 267.655 121.251 268.329Z" fill="#37474F"/>
<path d="M124.352 265.997V247.482C124.333 246.325 124.045 245.188 123.508 244.162C122.972 243.136 122.204 242.25 121.264 241.575C120.981 241.382 120.654 241.264 120.313 241.233C119.972 241.201 119.629 241.257 119.316 241.395L121.635 240.191C121.951 240.032 122.304 239.962 122.656 239.989C123.009 240.016 123.347 240.139 123.634 240.345C124.578 241.017 125.35 241.903 125.889 242.929C126.427 243.955 126.717 245.093 126.735 246.252V264.805C126.784 265.273 126.714 265.745 126.53 266.178C126.346 266.61 126.055 266.989 125.684 267.278L123.263 268.559C123.664 268.275 123.978 267.885 124.17 267.433C124.363 266.98 124.426 266.483 124.352 265.997Z" fill="#455A64"/>
<path d="M158.947 119.35L321.828 25.2758C322.508 24.8847 323.278 24.6782 324.063 24.6768C324.847 24.6753 325.618 24.879 326.299 25.2675C326.98 25.656 327.548 26.216 327.946 26.8917C328.344 27.5675 328.558 28.3356 328.568 29.1197L328.568 384.621C328.568 396.486 320.15 411.055 309.874 416.987L150.99 508.768C150.237 509.201 149.383 509.429 148.513 509.428C147.644 509.428 146.79 509.199 146.037 508.764C145.284 508.329 144.659 507.704 144.224 506.951C143.789 506.199 143.56 505.345 143.559 504.475L143.559 146.04C143.495 136.251 150.439 124.245 158.947 119.35Z" fill="#ED5831"/>
<path opacity="0.9" d="M158.947 119.35L321.828 25.2758C322.508 24.8847 323.278 24.6782 324.063 24.6768C324.847 24.6753 325.618 24.879 326.299 25.2675C326.98 25.656 327.548 26.216 327.946 26.8917C328.344 27.5675 328.558 28.3356 328.568 29.1197L328.568 384.621C328.568 396.486 320.15 411.055 309.874 416.987L150.99 508.768C150.237 509.201 149.383 509.429 148.513 509.428C147.644 509.428 146.79 509.199 146.037 508.764C145.284 508.329 144.659 507.704 144.224 506.951C143.789 506.199 143.56 505.345 143.559 504.475L143.559 146.04C143.495 136.251 150.439 124.245 158.947 119.35Z" fill="white"/>
<path d="M273.113 49.8387L270.588 60.4609L216.594 91.5968L207.266 86.6253L273.113 49.8387Z" fill="#455A64"/>
<path d="M257.237 60.102C257.237 61.8702 258.518 62.5749 260.005 61.7036C260.803 61.1739 261.465 60.4644 261.939 59.6321C262.413 58.7999 262.685 57.868 262.734 56.9115C262.734 55.1561 261.453 54.4386 259.966 55.3227C259.169 55.8497 258.506 56.5568 258.032 57.387C257.558 58.2172 257.286 59.1472 257.237 60.102Z" fill="#263238"/>
<path d="M220.861 82.5891C221.156 82.5868 221.446 82.512 221.706 82.3713L249.28 66.9955C249.669 66.7669 249.954 66.3951 250.073 65.9595C250.192 65.524 250.136 65.0592 249.917 64.6644C249.697 64.2697 249.333 63.9763 248.9 63.8468C248.468 63.7173 248.002 63.7621 247.602 63.9716L220.015 79.3474C219.679 79.5338 219.416 79.8264 219.265 80.1791C219.114 80.5319 219.085 80.9248 219.181 81.296C219.278 81.6672 219.496 81.9957 219.8 82.2298C220.104 82.4639 220.477 82.5903 220.861 82.5891Z" fill="#263238"/>
<path d="M294.408 99.2591C296.087 98.2853 297.304 99.131 297.304 101.271C297.304 102.341 297.04 103.394 296.534 104.338C296.029 105.281 295.299 106.085 294.408 106.678C293.931 106.967 293.384 107.121 292.826 107.121C292.268 107.121 291.72 106.967 291.243 106.678L288.565 111.521C289.507 112.041 290.575 112.289 291.65 112.237C292.725 112.185 293.764 111.835 294.652 111.227C296.827 109.896 298.641 108.049 299.933 105.85C301.225 103.65 301.954 101.167 302.058 98.6184C302.058 93.8648 298.867 92.2119 294.472 94.7745C291.99 96.3727 289.957 98.5778 288.565 101.181L291.243 103.308C291.904 101.692 292.999 100.29 294.408 99.2591Z" fill="#ED5831"/>
<path d="M273.151 115.314C273.151 120.106 276.393 121.721 280.839 119.158C283.077 117.821 284.949 115.951 286.291 113.716C287.632 111.481 288.4 108.949 288.527 106.345C288.527 101.553 285.285 99.9382 280.839 102.501C278.596 103.832 276.719 105.7 275.377 107.937C274.035 110.173 273.27 112.708 273.151 115.314ZM283.773 109.202C283.751 110.302 283.467 111.381 282.946 112.35C282.425 113.319 281.68 114.151 280.775 114.776C279.186 115.698 277.905 114.776 277.905 112.598C277.909 111.522 278.172 110.464 278.672 109.511C279.171 108.559 279.893 107.741 280.775 107.126C282.389 106.191 283.773 106.985 283.773 109.202Z" fill="#ED5831"/>
<path d="M267.987 110.227L262.452 121.759V113.456L258.262 115.878V132.035L262.106 129.806L267.616 118.376V126.628L271.831 124.194V107.998L267.987 110.227Z" fill="#ED5831"/>
<path d="M244.565 123.745V127.973L248.563 125.667V137.609L253.188 134.931V122.989L257.16 120.696V116.48L244.565 123.745Z" fill="#ED5831"/>
<path d="M235.544 142.837L240.798 139.8L241.515 141.671L246.256 138.929L240.349 126.18L235.596 128.922L229.907 148.372L234.84 145.527L235.544 142.837ZM236.685 138.352L238.12 132.83L239.593 136.674L236.685 138.352Z" fill="#ED5831"/>
<path d="M222.565 140.735C224.243 139.774 225.46 140.607 225.46 142.76C225.458 143.829 225.193 144.882 224.688 145.825C224.183 146.768 223.454 147.572 222.565 148.167C222.084 148.454 221.535 148.605 220.976 148.605C220.416 148.605 219.867 148.454 219.387 148.167L216.709 153.01C217.655 153.524 218.724 153.768 219.8 153.716C220.875 153.665 221.916 153.318 222.808 152.716C224.985 151.383 226.8 149.535 228.092 147.333C229.384 145.131 230.113 142.645 230.214 140.095C230.214 135.341 227.011 133.688 222.629 136.251C220.15 137.857 218.114 140.06 216.709 142.657L219.387 144.771C220.062 143.164 221.16 141.769 222.565 140.735Z" fill="#ED5831"/>
<path d="M204.075 147.129V151.345L208.073 149.038V161.019L212.699 158.341V146.399L216.671 144.105V139.89L204.075 147.129Z" fill="#ED5831"/>
<path d="M190.404 166.964C189.263 167.617 188.392 167.105 188.392 165.503V156.188L183.754 158.853V168.168C183.754 172.461 186.316 173.742 190.416 171.397C192.392 170.3 194.052 168.714 195.239 166.792C196.426 164.869 197.099 162.674 197.195 160.416V151.101L192.556 153.779V163.094C192.538 163.865 192.333 164.621 191.958 165.295C191.583 165.969 191.049 166.542 190.404 166.964Z" fill="#ED5831"/>
<path d="M176.284 167.015C176.809 166.72 177.142 166.708 177.142 167.195C177.142 169.219 169.903 172.14 169.903 177.996C169.903 181.584 172.632 181.596 175.784 179.777C178.555 178.079 180.941 175.823 182.793 173.153L181.076 170.129C179.667 172.31 177.858 174.206 175.745 175.715C175.066 176.112 174.631 176.112 174.631 175.536C174.631 173.435 181.883 170.641 181.883 164.965C181.883 161.736 179.525 161.121 175.886 163.171C173.542 164.589 171.479 166.426 169.8 168.591L171.479 171.692C172.865 169.926 174.481 168.353 176.284 167.015Z" fill="#ED5831"/>
<path d="M164.443 224.7C169.642 218.315 172.259 210.213 171.778 201.993C171.297 193.773 167.752 186.032 161.844 180.297C155.935 174.562 148.092 171.25 139.861 171.014C131.631 170.777 123.61 173.635 117.383 179.021C111.155 184.408 107.173 191.933 106.221 200.112C105.269 208.291 107.417 216.53 112.241 223.202C117.065 229.875 124.215 234.498 132.28 236.158C140.345 237.818 148.74 236.395 155.807 232.17L171.849 239.141L164.443 224.7Z" fill="#ED5831"/>
<path opacity="0.4" d="M164.443 224.7C169.642 218.315 172.259 210.213 171.778 201.993C171.297 193.773 167.752 186.032 161.844 180.297C155.935 174.562 148.092 171.25 139.861 171.014C131.631 170.777 123.61 173.635 117.383 179.021C111.155 184.408 107.173 191.933 106.221 200.112C105.269 208.291 107.417 216.53 112.241 223.202C117.065 229.875 124.215 234.498 132.28 236.158C140.345 237.818 148.74 236.395 155.807 232.17L171.849 239.141L164.443 224.7Z" fill="black"/>
<path d="M126.721 202.149C126.721 201.649 126.363 201.368 125.709 201.368C124.193 201.566 122.778 202.234 121.66 203.277L119.841 199.74C121.756 198.299 124.069 197.485 126.465 197.408C129.54 197.408 131.872 199.023 131.872 201.432C131.872 203.149 130.591 204.802 128.951 206.454L126.657 208.722H132.077V212.489H120.43V209.401L125.619 204.033C126.178 203.538 126.564 202.878 126.721 202.149Z" fill="white"/>
<path d="M141.559 197.626L138.022 206.109H139.47V203.251H143.929V206.109H145.621V209.607H143.929V212.49H139.47V209.607H133.128V206.429L136.972 197.626H141.559Z" fill="white"/>
<path d="M159.382 205.096V212.489H154.616V206.467C154.643 206.271 154.628 206.071 154.572 205.882C154.516 205.692 154.419 205.516 154.289 205.367C154.159 205.217 153.999 205.098 153.818 205.016C153.638 204.934 153.443 204.891 153.245 204.891C152.309 204.891 151.72 205.622 151.72 206.749V212.489H146.953V196.781H151.72V202.559C152.093 201.97 152.612 201.488 153.228 201.16C153.843 200.832 154.533 200.669 155.231 200.689C155.802 200.674 156.37 200.78 156.897 201C157.425 201.219 157.9 201.548 158.292 201.964C158.684 202.38 158.983 202.874 159.171 203.414C159.359 203.954 159.431 204.527 159.382 205.096Z" fill="white"/>
<path d="M167.353 278.336L167.353 437.539C167.35 439.34 167.822 441.11 168.72 442.67C169.619 444.23 170.913 445.526 172.471 446.428C174.03 447.329 175.799 447.804 177.599 447.805C179.4 447.806 181.169 447.332 182.729 446.432L268.474 396.922L283.671 388.157C288.903 385.132 293.25 380.786 296.277 375.553C299.303 370.321 300.904 364.386 300.917 358.341L300.917 199.125C300.92 197.324 300.448 195.555 299.55 193.994C298.651 192.434 297.357 191.138 295.798 190.236C294.24 189.335 292.471 188.86 290.67 188.859C288.87 188.858 287.101 189.332 285.541 190.232L184.574 248.52C179.339 251.54 174.991 255.886 171.968 261.12C168.945 266.354 167.353 272.292 167.353 278.336Z" fill="#ED5831"/>
<path opacity="0.5" d="M167.353 278.336L167.353 437.539C167.35 439.34 167.822 441.11 168.72 442.67C169.619 444.23 170.913 445.526 172.471 446.428C174.03 447.329 175.799 447.804 177.599 447.805C179.4 447.806 181.169 447.332 182.729 446.432L268.474 396.922L283.671 388.157C288.903 385.132 293.25 380.786 296.277 375.553C299.303 370.321 300.904 364.386 300.917 358.341L300.917 199.125C300.92 197.324 300.448 195.555 299.55 193.994C298.651 192.434 297.357 191.138 295.798 190.236C294.24 189.335 292.471 188.86 290.67 188.859C288.87 188.858 287.101 189.332 285.541 190.232L184.574 248.52C179.339 251.54 174.991 255.886 171.968 261.12C168.945 266.354 167.353 272.292 167.353 278.336Z" fill="white"/>
<path d="M216.747 372.538C216.747 372.538 200.693 399.164 212.288 429.185L268.513 396.922L216.747 372.538Z" fill="#263238"/>
<path d="M191.143 252.911C189.928 243.043 196.943 234.058 206.811 232.843C216.679 231.628 225.663 238.643 226.879 248.511C228.094 258.379 221.079 267.363 211.211 268.578C201.343 269.793 192.359 262.779 191.143 252.911Z" fill="#263238"/>
<path d="M208.919 200.214C208.919 200.214 203.396 191.245 201.705 191.898C200.013 192.552 202.807 201.098 202.807 201.098C202.807 201.098 194.453 202.841 196.003 204.942C197.553 207.043 207.765 206.544 207.765 206.544L208.919 200.214Z" fill="#263238"/>
<path d="M205.075 223.329C208.919 252.21 233.264 252.21 233.264 252.21L284.26 229.761C284.26 229.761 288.104 226.391 289.283 218.652C289.735 215.482 289.735 212.264 289.283 209.094C289.283 209.094 289.283 209.029 289.283 209.004C287.656 196.857 278.571 183.8 258.787 179.79C254.452 178.914 250.038 178.485 245.616 178.508C243.476 178.501 241.337 178.608 239.209 178.829C223.833 180.341 213.057 187.516 207.919 198.676C206.763 201.195 205.904 203.84 205.357 206.556C204.314 212.091 204.218 217.762 205.075 223.329Z" fill="#263238"/>
<path d="M327.504 279.194C327.504 279.194 345.609 278.566 352.58 296.21C352.58 296.21 344.892 301.4 334.808 296.21C324.724 291.021 327.504 279.194 327.504 279.194Z" fill="#ED5831"/>
<path opacity="0.5" d="M327.504 279.194C327.504 279.194 345.609 278.566 352.58 296.21C352.58 296.21 344.892 301.4 334.808 296.21C324.724 291.021 327.504 279.194 327.504 279.194Z" fill="black"/>
<path d="M328.017 287.689C328.017 287.689 333.142 265.42 335.846 265.151C338.549 264.882 339.075 271.942 338.857 275.927L345.264 262.14C345.467 261.712 345.756 261.329 346.112 261.017C346.469 260.704 346.886 260.468 347.337 260.323C347.788 260.178 348.265 260.126 348.737 260.172C349.209 260.218 349.666 260.36 350.081 260.59C356.488 264.113 367.725 274.825 344.033 301.31L328.017 287.689Z" fill="#945959"/>
<path d="M262.414 272.288L266.258 271.788C270.131 271.275 274.072 271.801 277.675 273.315C281.278 274.828 284.413 277.273 286.759 280.399L309.63 310.843L327.569 279.194C327.569 279.194 329.721 300.72 352.644 296.21L328.03 337.635C326.472 340.258 324.304 342.465 321.71 344.07C319.116 345.674 316.172 346.628 313.13 346.851C310.088 347.074 307.037 346.558 304.237 345.349C301.437 344.139 298.971 342.271 297.048 339.903L275.983 314.008L262.414 272.288Z" fill="#ED5831"/>
<path d="M213.595 343.337C218.721 356.33 219.284 358.867 216.158 365.363C213.981 370.161 212.265 375.155 211.033 380.277C211.033 380.277 234.788 406.903 268.602 396.934L283.799 388.17C286.959 386.348 289.806 384.029 292.23 381.302L287.604 346.809C287.371 344.994 287.555 343.149 288.142 341.415L292.999 327.18C295.368 320.227 295.721 312.745 294.016 305.6C292.311 298.455 288.617 291.939 283.363 286.805L267.039 270.853L224.166 276.337L217.76 278.169C213.566 279.382 209.95 282.068 207.577 285.733C205.205 289.398 204.234 293.796 204.844 298.119C206.945 313.239 210.379 335.175 213.595 343.337Z" fill="#ED5831"/>
<path opacity="0.5" d="M213.595 343.337C218.721 356.33 219.284 358.867 216.158 365.363C213.981 370.161 212.265 375.155 211.033 380.277C211.033 380.277 234.788 406.903 268.602 396.934L283.799 388.17C286.959 386.348 289.806 384.029 292.23 381.302L287.604 346.809C287.371 344.994 287.555 343.149 288.142 341.415L292.999 327.18C295.368 320.227 295.721 312.745 294.016 305.6C292.311 298.455 288.617 291.939 283.363 286.805L267.039 270.853L224.166 276.337L217.76 278.169C213.566 279.382 209.95 282.068 207.577 285.733C205.205 289.398 204.234 293.796 204.844 298.119C206.945 313.239 210.379 335.175 213.595 343.337Z" fill="black"/>
<path d="M239.452 304.526L248.037 297.21C248.946 296.432 250.043 295.905 251.218 295.68C252.393 295.455 253.607 295.541 254.739 295.928L265.117 299.503L266.514 293.686C266.732 292.781 267.131 291.929 267.687 291.183C268.243 290.436 268.944 289.81 269.749 289.342C270.553 288.874 271.445 288.573 272.368 288.459C273.292 288.344 274.23 288.418 275.124 288.676L279.622 289.957L272.011 275.376C269.526 270.627 265.698 266.714 261.004 264.126L258.019 262.486L233.353 263.767C233.353 263.767 224.166 267.611 224.166 276.26L239.452 304.449" fill="#ED5831"/>
<path d="M233.251 274.697L257.98 293.968V232.606H233.251V274.697Z" fill="#945959"/>
<path d="M257.596 269.636L265.117 299.554L233.353 274.697L257.596 269.636Z" fill="#945959"/>
<path d="M257.98 265.189C252.481 263.148 247.455 260.009 243.206 255.965C238.957 251.921 235.574 247.056 233.264 241.665V232.606H257.993L257.98 265.189Z" fill="#703838"/>
<path d="M252.65 187.132C262.029 187.132 281.966 192.359 284.273 216.909C286.579 241.46 284.35 260.474 271.69 262.319C259.031 264.164 229.612 254.977 225.665 223.201C221.719 191.424 243.514 187.132 252.65 187.132Z" fill="#945959"/>
<path d="M267.411 227.301V241.767L275.893 239.166L267.411 227.301Z" fill="#703838"/>
<path d="M257.98 232.747C256.353 232.747 255.033 231.427 255.033 229.8C255.033 228.172 256.353 226.853 257.98 226.853C259.608 226.853 260.927 228.172 260.927 229.8C260.927 231.427 259.608 232.747 257.98 232.747Z" fill="#263238"/>
<path d="M274.432 227.75C274.435 228.332 274.61 228.9 274.935 229.383C275.261 229.866 275.722 230.242 276.26 230.463C276.799 230.684 277.391 230.741 277.962 230.626C278.533 230.51 279.057 230.229 279.468 229.816C279.879 229.403 280.158 228.878 280.271 228.307C280.383 227.736 280.324 227.144 280.101 226.606C279.877 226.068 279.5 225.609 279.015 225.285C278.531 224.962 277.962 224.79 277.379 224.79C276.991 224.79 276.607 224.866 276.249 225.015C275.89 225.164 275.565 225.382 275.291 225.657C275.017 225.932 274.8 226.259 274.653 226.618C274.506 226.977 274.431 227.361 274.432 227.75Z" fill="#263238"/>
<path d="M280.98 221.599L275.214 218.178C275.214 218.178 277.418 215.885 279.622 217.256C281.826 218.627 280.98 221.599 280.98 221.599Z" fill="#263238"/>
<path d="M271.396 247.636C268.588 247.841 265.793 247.091 263.464 245.509C263.464 245.509 262.913 249.698 266.424 250.493C269.935 251.287 271.396 247.636 271.396 247.636Z" fill="#703838"/>
<path d="M276.431 195.486C276.431 195.486 272.908 229.377 226.819 230.44C226.819 230.44 212.891 196.754 240.413 185.812C267.936 174.869 276.431 195.486 276.431 195.486Z" fill="#263238"/>
<path d="M213.249 225.366L218.913 222.086C221.065 220.805 224.038 220.984 227.331 222.88C233.866 226.648 239.17 235.835 239.17 243.382C239.17 247.161 237.889 249.788 235.685 251.069L230.124 254.273L229.804 254.452L229.612 254.567C227.511 255.592 224.704 255.349 221.616 253.568C215.082 249.724 209.777 240.614 209.777 233.067C209.816 229.249 211.135 226.609 213.249 225.366Z" fill="#ED5831"/>
<path d="M213.294 244.666C208.673 236.662 208.673 228.011 213.294 225.343C217.915 222.675 225.407 227.001 230.028 235.004C234.649 243.008 234.649 251.659 230.028 254.327C225.407 256.995 217.915 252.669 213.294 244.666Z" fill="#ED5831"/>
<path opacity="0.5" d="M213.294 244.666C208.673 236.662 208.673 228.011 213.294 225.343C217.915 222.675 225.407 227.001 230.028 235.004C234.649 243.008 234.649 251.659 230.028 254.327C225.407 256.995 217.915 252.669 213.294 244.666Z" fill="black"/>
<path d="M210.982 232.478L214.825 230.235C216.286 229.364 218.324 229.479 220.579 230.773C222.934 232.313 224.895 234.385 226.302 236.822C227.708 239.26 228.522 241.994 228.677 244.804C228.677 247.366 227.767 249.199 226.293 250.044L222.449 252.235C222.381 252.285 222.308 252.328 222.232 252.364L222.103 252.44C221.202 252.782 220.231 252.898 219.275 252.777C218.319 252.657 217.407 252.303 216.619 251.749C214.265 250.21 212.306 248.14 210.899 245.705C209.493 243.27 208.678 240.539 208.521 237.731C208.624 235.13 209.521 233.323 210.982 232.478Z" fill="#ED5831"/>
<path d="M208.624 237.705C208.781 240.513 209.595 243.245 211.002 245.679C212.408 248.114 214.368 250.185 216.722 251.723C221.206 254.285 224.833 252.21 224.833 247.046C224.681 244.236 223.867 241.501 222.457 239.065C221.048 236.629 219.083 234.561 216.722 233.028C212.25 230.44 208.624 232.529 208.624 237.705Z" fill="#ED5831"/>
<path opacity="0.3" d="M208.624 237.705C208.781 240.513 209.595 243.245 211.002 245.679C212.408 248.114 214.368 250.185 216.722 251.723C221.206 254.285 224.833 252.21 224.833 247.046C224.681 244.236 223.867 241.501 222.457 239.065C221.048 236.629 219.083 234.561 216.722 233.028C212.25 230.44 208.624 232.529 208.624 237.705Z" fill="black"/>
<path d="M230.842 180.52C234.515 177.683 239.014 176.122 243.655 176.074H244.795C249.495 176.023 254.188 176.453 258.8 177.355C257.955 177.355 257.109 177.355 256.238 177.355H258.8V179.739H256.417C248.203 180.018 240.42 183.48 234.713 189.393C229.005 195.306 225.821 203.207 225.832 211.425V221.509C225.832 221.908 225.749 222.302 225.587 222.667C225.425 223.031 225.189 223.357 224.893 223.624C224.597 223.891 224.248 224.093 223.869 224.216C223.49 224.34 223.089 224.382 222.693 224.341H222.398L219.835 223.547C220.006 223.601 220.182 223.635 220.361 223.649C219.597 223.546 218.898 223.164 218.397 222.578C217.896 221.992 217.628 221.242 217.644 220.472V211.118C217.67 194.192 224.986 185.094 230.842 180.52Z" fill="#ED5831"/>
<path d="M246.974 261.615C248.03 261.615 249.075 261.388 250.036 260.948L258.044 257.245C258.17 257.201 258.284 257.13 258.381 257.039C258.478 256.948 258.554 256.837 258.606 256.715C258.658 256.592 258.684 256.46 258.682 256.327C258.68 256.194 258.65 256.063 258.595 255.942C258.54 255.821 258.46 255.713 258.361 255.624C258.262 255.535 258.145 255.468 258.019 255.427C257.893 255.386 257.759 255.371 257.626 255.384C257.494 255.397 257.366 255.438 257.25 255.503L249.242 259.206C248.22 259.681 247.076 259.825 245.969 259.618C244.862 259.411 243.847 258.864 243.066 258.053L235.378 250.108C235.198 249.928 234.953 249.827 234.699 249.827C234.444 249.827 234.2 249.928 234.02 250.108C233.843 250.29 233.744 250.534 233.744 250.788C233.744 251.041 233.843 251.285 234.02 251.467L241.708 259.411C242.392 260.114 243.211 260.671 244.116 261.05C245.021 261.428 245.993 261.62 246.974 261.615Z" fill="#ED5831"/>
<path opacity="0.5" d="M246.974 261.615C248.03 261.615 249.075 261.388 250.036 260.948L258.044 257.245C258.17 257.201 258.284 257.13 258.381 257.039C258.478 256.948 258.554 256.837 258.606 256.715C258.658 256.592 258.684 256.46 258.682 256.327C258.68 256.194 258.65 256.063 258.595 255.942C258.54 255.821 258.46 255.713 258.361 255.624C258.262 255.535 258.145 255.468 258.019 255.427C257.893 255.386 257.759 255.371 257.626 255.384C257.494 255.397 257.366 255.438 257.25 255.503L249.242 259.206C248.22 259.681 247.076 259.825 245.969 259.618C244.862 259.411 243.847 258.864 243.066 258.053L235.378 250.108C235.198 249.928 234.953 249.827 234.699 249.827C234.444 249.827 234.2 249.928 234.02 250.108C233.843 250.29 233.744 250.534 233.744 250.788C233.744 251.041 233.843 251.285 234.02 251.467L241.708 259.411C242.392 260.114 243.211 260.671 244.116 261.05C245.021 261.428 245.993 261.62 246.974 261.615Z" fill="black"/>
<path d="M255.943 254.555C255.943 255.295 256.162 256.018 256.573 256.633C256.985 257.248 257.569 257.728 258.253 258.011C258.936 258.294 259.689 258.368 260.414 258.224C261.14 258.08 261.807 257.723 262.33 257.2C262.853 256.677 263.21 256.01 263.354 255.284C263.498 254.559 263.424 253.806 263.141 253.123C262.858 252.439 262.378 251.855 261.763 251.444C261.148 251.033 260.424 250.813 259.684 250.813C258.692 250.813 257.74 251.207 257.039 251.909C256.337 252.611 255.943 253.562 255.943 254.555Z" fill="#ED5831"/>
<path opacity="0.5" d="M255.943 254.555C255.943 255.295 256.162 256.018 256.573 256.633C256.985 257.248 257.569 257.728 258.253 258.011C258.936 258.294 259.689 258.368 260.414 258.224C261.14 258.08 261.807 257.723 262.33 257.2C262.853 256.677 263.21 256.01 263.354 255.284C263.498 254.559 263.424 253.806 263.141 253.123C262.858 252.439 262.378 251.855 261.763 251.444C261.148 251.033 260.424 250.813 259.684 250.813C258.692 250.813 257.74 251.207 257.039 251.909C256.337 252.611 255.943 253.562 255.943 254.555Z" fill="black"/>
<path d="M217.67 211.118V220.472C217.654 221.242 217.921 221.992 218.422 222.578C218.923 223.164 219.622 223.546 220.386 223.649C220.809 223.694 221.235 223.65 221.639 223.519C222.043 223.388 222.415 223.174 222.73 222.89C223.046 222.606 223.298 222.258 223.47 221.87C223.642 221.483 223.731 221.063 223.731 220.638V211.118C223.723 206.574 224.635 202.076 226.412 197.894C228.188 193.712 230.792 189.933 234.067 186.784C237.342 183.634 241.221 181.18 245.469 179.569C249.717 177.957 254.248 177.222 258.787 177.407C254.175 176.504 249.482 176.075 244.783 176.125H243.668C239.027 176.173 234.528 177.734 230.855 180.571C224.986 185.094 217.67 194.192 217.67 211.118Z" fill="#ED5831"/>
<path opacity="0.5" d="M217.67 211.118V220.472C217.654 221.242 217.921 221.992 218.422 222.578C218.923 223.164 219.622 223.546 220.386 223.649C220.809 223.694 221.235 223.65 221.639 223.519C222.043 223.388 222.415 223.174 222.73 222.89C223.046 222.606 223.298 222.258 223.47 221.87C223.642 221.483 223.731 221.063 223.731 220.638V211.118C223.723 206.574 224.635 202.076 226.412 197.894C228.188 193.712 230.792 189.933 234.067 186.784C237.342 183.634 241.221 181.18 245.469 179.569C249.717 177.957 254.248 177.222 258.787 177.407C254.175 176.504 249.482 176.075 244.783 176.125H243.668C239.027 176.173 234.528 177.734 230.855 180.571C224.986 185.094 217.67 194.192 217.67 211.118Z" fill="black"/>
<path d="M232.072 387.389C232.072 387.389 238.274 404.469 216.107 412.157C216.107 412.157 208.867 401.522 216.107 392.822C223.346 384.121 232.072 387.389 232.072 387.389Z" fill="#ED5831"/>
<path opacity="0.7" d="M232.072 387.389C232.072 387.389 238.274 404.469 216.107 412.157C216.107 412.157 208.867 401.522 216.107 392.822C223.346 384.121 232.072 387.389 232.072 387.389Z" fill="black"/>
<path d="M224.294 388.17C224.294 388.17 245.949 396.102 245.833 399.177C245.718 402.252 236.634 400.151 236.634 400.151L239.952 402.329C243.447 404.609 246.154 407.911 247.704 411.785C248.042 412.639 248.054 413.588 247.737 414.451C247.421 415.313 246.798 416.029 245.987 416.462L237.761 420.818C237.297 421.065 236.787 421.215 236.263 421.262C235.74 421.308 235.212 421.249 234.711 421.087C234.211 420.926 233.748 420.666 233.349 420.323C232.951 419.979 232.626 419.56 232.392 419.088C231.934 418.182 231.3 417.376 230.528 416.717C229.756 416.057 228.861 415.556 227.895 415.245C223.423 413.758 215.082 409.479 211.738 397.767L224.294 388.17Z" fill="#945959"/>
<path d="M217.798 278.144C217.798 278.144 229.33 284.55 223.205 304.001C217.081 323.451 205.587 353.626 205.587 353.626L232.072 387.389C229.243 387.73 226.517 388.664 224.073 390.13C221.629 391.596 219.521 393.561 217.888 395.897C216.323 398.272 215.346 400.985 215.036 403.812C214.726 406.639 215.093 409.499 216.107 412.157L183.228 369.873C180.188 365.966 178.169 361.362 177.355 356.478C176.54 351.594 176.956 346.585 178.564 341.902L192.659 300.746C194.382 295.719 197.245 291.158 201.023 287.422C204.802 283.685 209.395 280.873 214.441 279.207L217.798 278.144Z" fill="#ED5831"/>
<path d="M412.456 163.248L463.414 133.778C464 133.371 464.679 133.118 465.388 133.039C466.097 132.961 466.815 133.061 467.476 133.329C467.615 133.394 467.748 133.471 467.873 133.56L478.956 140.056H478.879C480.276 140.851 481.16 142.696 481.16 145.335V202.021C481.16 206.813 478.251 212.387 474.651 214.462L423.693 243.933C423.046 244.4 422.277 244.668 421.479 244.702C420.682 244.736 419.893 244.535 419.208 244.125C419.243 244.139 419.274 244.161 419.298 244.189L408.292 237.782C406.856 237.014 405.947 235.143 405.947 232.465V175.69C405.947 170.898 408.804 165.324 412.456 163.248Z" fill="#ED5831"/>
<path d="M407.766 168.617C408.797 166.424 410.422 164.564 412.456 163.248L463.414 133.778C464 133.371 464.679 133.118 465.388 133.039C466.097 132.961 466.815 133.061 467.476 133.329C467.615 133.394 467.748 133.471 467.873 133.56L478.956 140.056C478.278 139.71 477.518 139.556 476.759 139.613C475.999 139.669 475.27 139.934 474.651 140.377L423.693 169.847C421.59 171.222 419.923 173.169 418.888 175.459L407.766 168.617Z" fill="#ED5831"/>
<path d="M417.184 238.948C417.184 241.511 418.004 243.292 419.298 244.074L408.292 237.667C406.856 236.898 405.947 235.027 405.947 232.35V175.69C406.001 173.223 406.624 170.803 407.766 168.617L418.888 175.459C417.82 177.581 417.238 179.914 417.184 182.288V238.948Z" fill="#ED5831"/>
<path opacity="0.3" d="M407.766 168.617C408.797 166.424 410.422 164.564 412.456 163.248L463.414 133.778C464 133.371 464.679 133.118 465.388 133.039C466.097 132.961 466.815 133.061 467.476 133.329C467.615 133.394 467.748 133.471 467.873 133.56L478.956 140.056C478.278 139.71 477.518 139.556 476.759 139.613C475.999 139.669 475.27 139.934 474.651 140.377L423.693 169.847C421.59 171.222 419.923 173.169 418.888 175.459L407.766 168.617Z" fill="black"/>
<path opacity="0.6" d="M417.184 238.948C417.184 241.511 418.004 243.292 419.298 244.074L408.292 237.667C406.856 236.898 405.947 235.027 405.947 232.35V175.69C406.001 173.223 406.624 170.803 407.766 168.617L418.888 175.459C417.82 177.581 417.238 179.914 417.184 182.288V238.948Z" fill="black"/>
<path d="M432.124 198.523C432.124 205.865 435.033 208.363 439.389 205.839C440.591 205.155 441.642 204.235 442.478 203.134C443.315 202.033 443.921 200.774 444.258 199.432C445.539 201.008 447.525 201.111 450.319 199.497C454.906 196.844 458.519 190.527 458.519 184.39C458.519 178.252 454.944 176.138 450.319 178.803C447.972 180.187 446.076 182.22 444.86 184.659V182.237L440.03 185.03V198.305C440.102 199.003 439.981 199.708 439.68 200.343C439.38 200.978 438.911 201.518 438.326 201.905C436.698 202.854 435.699 201.252 435.699 196.498C435.699 188.183 441.029 179.367 448.909 174.818C456.789 170.27 462.107 173.435 462.107 181.994C462.004 186.536 460.752 190.977 458.469 194.905C456.186 198.832 452.946 202.118 449.05 204.455C446.935 205.758 444.533 206.524 442.054 206.685L440.914 211.105C443.8 210.872 446.59 209.954 449.05 208.427C459.301 202.495 466.079 190.553 466.079 179.739C466.079 168.924 459.237 165.004 448.909 170.974C438.928 176.728 432.124 188.247 432.124 198.523ZM444.783 192.36C444.758 190.735 445.155 189.131 445.934 187.705C446.713 186.28 447.849 185.08 449.23 184.223C451.792 182.724 453.624 183.775 453.624 187.26C453.657 188.887 453.27 190.496 452.5 191.93C451.731 193.364 450.604 194.576 449.23 195.448C446.667 196.895 444.783 195.96 444.783 192.36Z" fill="#ED5831"/>
<g opacity="0.9">
<path d="M432.124 198.523C432.124 205.865 435.033 208.363 439.389 205.839C440.591 205.155 441.642 204.235 442.478 203.134C443.315 202.033 443.921 200.774 444.258 199.432C445.539 201.008 447.525 201.111 450.319 199.497C454.906 196.844 458.519 190.527 458.519 184.39C458.519 178.252 454.944 176.138 450.319 178.803C447.972 180.187 446.076 182.22 444.86 184.659V182.237L440.03 185.03V198.305C440.102 199.003 439.981 199.708 439.68 200.343C439.38 200.978 438.911 201.518 438.326 201.905C436.698 202.854 435.699 201.252 435.699 196.498C435.699 188.183 441.029 179.367 448.909 174.818C456.789 170.27 462.107 173.435 462.107 181.994C462.004 186.536 460.752 190.977 458.469 194.905C456.186 198.832 452.946 202.118 449.05 204.455C446.935 205.758 444.533 206.524 442.054 206.685L440.914 211.105C443.8 210.872 446.59 209.954 449.05 208.427C459.301 202.495 466.079 190.553 466.079 179.739C466.079 168.924 459.237 165.004 448.909 170.974C438.928 176.728 432.124 188.247 432.124 198.523ZM444.783 192.36C444.758 190.735 445.155 189.131 445.934 187.705C446.713 186.28 447.849 185.08 449.23 184.223C451.792 182.724 453.624 183.775 453.624 187.26C453.657 188.887 453.27 190.496 452.5 191.93C451.731 193.364 450.604 194.576 449.23 195.448C446.667 196.895 444.783 195.96 444.783 192.36Z" fill="white"/>
</g>
<path d="M412.456 264.19L463.414 234.72C463.999 234.311 464.679 234.057 465.389 233.981C466.099 233.905 466.817 234.009 467.476 234.284C467.615 234.349 467.748 234.426 467.873 234.515L478.956 241.011H478.879C480.276 241.806 481.16 243.651 481.16 246.277V302.937C481.16 307.742 478.251 313.303 474.651 315.379L423.693 344.849C423.048 345.32 422.278 345.589 421.48 345.624C420.682 345.658 419.891 345.455 419.208 345.041L419.298 345.118L408.292 338.648C406.856 337.892 405.947 336.085 405.947 333.33V276.619C405.947 271.827 408.804 266.266 412.456 264.19Z" fill="#ED5831"/>
<path d="M407.766 269.559C408.794 267.364 410.419 265.503 412.456 264.19L463.414 234.72C463.999 234.311 464.679 234.057 465.389 233.981C466.099 233.905 466.817 234.009 467.476 234.284C467.615 234.349 467.748 234.426 467.873 234.515L478.956 241.011C478.28 240.661 477.52 240.505 476.76 240.559C476.001 240.614 475.271 240.876 474.651 241.319L423.693 270.789C421.586 272.166 419.919 274.118 418.888 276.414L407.766 269.559Z" fill="#ED5831"/>
<path d="M417.184 339.878C417.184 342.44 418.004 344.221 419.298 345.067L408.292 338.596C406.856 337.84 405.947 336.034 405.947 333.279V276.619C406.001 274.157 406.624 271.741 407.766 269.559L418.888 276.401C417.82 278.518 417.238 280.847 417.184 283.218V339.878Z" fill="#ED5831"/>
<path opacity="0.3" d="M407.766 269.559C408.794 267.364 410.419 265.503 412.456 264.19L463.414 234.72C463.999 234.311 464.679 234.057 465.389 233.981C466.099 233.905 466.817 234.009 467.476 234.284C467.615 234.349 467.748 234.426 467.873 234.515L478.956 241.011C478.28 240.661 477.52 240.505 476.76 240.559C476.001 240.614 475.271 240.876 474.651 241.319L423.693 270.789C421.586 272.166 419.919 274.118 418.888 276.414L407.766 269.559Z" fill="black"/>
<path opacity="0.6" d="M417.184 339.878C417.184 342.44 418.004 344.221 419.298 345.067L408.292 338.596C406.856 337.84 405.947 336.034 405.947 333.279V276.619C406.001 274.157 406.624 271.741 407.766 269.559L418.888 276.401C417.82 278.518 417.238 280.847 417.184 283.218V339.878Z" fill="black"/>
<path d="M454.867 289.522L467.155 269.559V296.608L454.867 289.522Z" fill="#ED5831"/>
<path d="M443.451 295.275L431.189 316.506V289.496L443.451 295.275Z" fill="#ED5831"/>
<path d="M465.297 268.649L452.676 289.15C452.623 289.195 452.575 289.247 452.535 289.304C452.524 289.355 452.524 289.407 452.535 289.458L448.781 295.557L445.603 294.058C445.554 294.004 445.498 293.957 445.437 293.917C445.312 293.844 445.171 293.8 445.027 293.789L432.214 287.779L465.297 268.649Z" fill="#ED5831"/>
<path d="M445.309 296.146L448.743 297.761C448.875 297.822 449.02 297.853 449.165 297.85C449.342 297.852 449.517 297.809 449.672 297.723C449.827 297.638 449.957 297.514 450.05 297.363L453.804 291.264L466.13 298.389L432.957 317.531L445.309 296.146Z" fill="#ED5831"/>
<g opacity="0.9">
<path d="M454.867 289.522L467.155 269.559V296.608L454.867 289.522Z" fill="white"/>
<path d="M443.451 295.275L431.189 316.506V289.496L443.451 295.275Z" fill="white"/>
<path d="M465.297 268.649L452.676 289.15C452.623 289.195 452.575 289.247 452.535 289.304C452.524 289.355 452.524 289.407 452.535 289.458L448.781 295.557L445.603 294.058C445.554 294.004 445.498 293.957 445.437 293.917C445.312 293.844 445.171 293.8 445.027 293.789L432.214 287.779L465.297 268.649Z" fill="white"/>
<path d="M445.309 296.146L448.743 297.761C448.875 297.822 449.02 297.853 449.165 297.85C449.342 297.852 449.517 297.809 449.672 297.723C449.827 297.638 449.957 297.514 450.05 297.363L453.804 291.264L466.13 298.389L432.957 317.531L445.309 296.146Z" fill="white"/>
</g>
<path d="M412.456 62.3572L463.414 32.8869C463.999 32.4782 464.679 32.224 465.389 32.1478C466.099 32.0717 466.817 32.1761 467.476 32.4513C467.615 32.5156 467.748 32.5928 467.873 32.6819L478.956 39.1782H478.879C480.276 39.9598 481.16 41.8177 481.16 44.4444V101.104C481.16 105.896 478.251 111.47 474.651 113.546L423.693 143.016C423.048 143.487 422.278 143.756 421.48 143.791C420.682 143.825 419.891 143.622 419.208 143.208L419.298 143.272L408.292 136.866C406.856 136.11 405.947 134.303 405.947 131.548V74.7475C405.947 69.9554 408.804 64.3817 412.456 62.3572Z" fill="#ED5831"/>
<path d="M407.766 67.6875C408.793 65.4891 410.419 63.6241 412.456 62.3059L463.414 32.8869C463.999 32.4782 464.679 32.224 465.389 32.1478C466.099 32.0717 466.817 32.1761 467.476 32.4513C467.615 32.5156 467.748 32.5928 467.873 32.6819L478.956 39.1782C478.28 38.8284 477.52 38.672 476.76 38.7263C476.001 38.7805 475.271 39.0433 474.651 39.4857L423.693 68.956C421.586 70.3329 419.919 72.2851 418.888 74.581L407.766 67.6875Z" fill="#ED5831"/>
<path d="M417.184 137.955C417.184 140.518 418.004 142.299 419.298 143.08L408.292 136.674C406.856 135.918 405.947 134.111 405.947 131.356V74.7475C406.001 72.2854 406.624 69.8692 407.766 67.6875L418.888 74.5297C417.82 76.647 417.238 78.9757 417.184 81.3463V137.955Z" fill="#ED5831"/>
<path opacity="0.3" d="M407.766 67.6875C408.793 65.4891 410.419 63.6241 412.456 62.3059L463.414 32.8869C463.999 32.4782 464.679 32.224 465.389 32.1478C466.099 32.0717 466.817 32.1761 467.476 32.4513C467.615 32.5156 467.748 32.5928 467.873 32.6819L478.956 39.1782C478.28 38.8284 477.52 38.672 476.76 38.7263C476.001 38.7805 475.271 39.0433 474.651 39.4857L423.693 68.956C421.586 70.3329 419.919 72.2851 418.888 74.581L407.766 67.6875Z" fill="black"/>
<path opacity="0.6" d="M417.184 137.955C417.184 140.518 418.004 142.299 419.298 143.08L408.292 136.674C406.856 135.918 405.947 134.111 405.947 131.356V74.7475C406.001 72.2854 406.624 69.8692 407.766 67.6875L418.888 74.5297C417.82 76.647 417.238 78.9757 417.184 81.3463V137.955Z" fill="black"/>
<path d="M433.854 113.61C435.814 110.381 437.787 107.203 439.748 103.949C440.059 103.332 440.493 102.787 441.025 102.346C441.556 101.905 442.173 101.578 442.836 101.386C443.784 101.194 444.732 100.976 445.706 100.694C446.053 100.55 446.344 100.298 446.539 99.9767C449.747 94.4864 452.297 88.6375 454.137 82.5508C454.176 82.4207 454.187 82.2837 454.17 82.149C454.152 82.0143 454.106 81.8848 454.034 81.7692C453.432 81.167 452.753 80.616 452.138 80.0779C451.523 79.5397 451.203 78.2968 451.651 76.6824C452.599 73.2613 453.509 69.8401 454.457 66.4318C454.641 65.4634 455.076 64.5604 455.719 63.8136C456.363 63.0669 457.191 62.5027 458.122 62.1779C460.188 61.6034 462.382 61.684 464.4 62.4085C465.182 62.7032 465.592 63.4079 465.605 64.6252C465.272 66.97 465.054 69.2892 464.605 71.6724C461.445 88.8591 453.842 104.662 441.798 119.081C441.483 119.559 441.061 119.957 440.565 120.242C440.068 120.527 439.512 120.691 438.941 120.721C436.947 120.674 435.031 119.936 433.521 118.633C432.38 117.608 432.496 115.788 433.854 113.61Z" fill="#ED5831"/>
<path d="M434.008 96.1456C434.276 92.46 435.291 88.8677 436.993 85.5875C438.263 83.025 439.88 80.6494 441.798 78.5274C442.298 77.9637 442.72 77.7843 442.977 78.2071C443.233 78.63 442.977 79.2322 442.49 79.7831L441.99 80.3597C438.449 84.4478 436.217 89.5054 435.584 94.877C435.59 95.2688 435.551 95.6601 435.468 96.043C435.307 96.4837 435.049 96.8823 434.712 97.209C434.443 97.4012 434.136 97.209 433.918 97.209C433.995 96.6837 433.982 96.4146 434.008 96.1456Z" fill="#ED5831"/>
<path d="M445.616 85.6259C444.007 87.3957 443.029 89.6485 442.836 92.0325C442.751 92.395 442.618 92.7442 442.439 93.0704C441.657 93.711 441.273 93.4932 441.273 92.686C441.547 89.6293 442.811 86.7455 444.873 84.4727C445.36 83.973 445.757 83.8193 445.988 84.2421C446.071 84.4835 446.08 84.7442 446.014 84.9908C445.947 85.2374 445.809 85.4585 445.616 85.6259Z" fill="#ED5831"/>
<g opacity="0.9">
<path d="M433.854 113.61C435.814 110.381 437.787 107.203 439.748 103.949C440.059 103.332 440.493 102.787 441.025 102.346C441.556 101.905 442.173 101.578 442.836 101.386C443.784 101.194 444.732 100.976 445.706 100.694C446.053 100.55 446.344 100.298 446.539 99.9767C449.747 94.4864 452.297 88.6375 454.137 82.5508C454.176 82.4207 454.187 82.2837 454.17 82.149C454.152 82.0143 454.106 81.8848 454.034 81.7692C453.432 81.167 452.753 80.616 452.138 80.0779C451.523 79.5397 451.203 78.2968 451.651 76.6824C452.599 73.2613 453.509 69.8401 454.457 66.4318C454.641 65.4634 455.076 64.5604 455.719 63.8136C456.363 63.0669 457.191 62.5027 458.122 62.1779C460.188 61.6034 462.382 61.684 464.4 62.4085C465.182 62.7032 465.592 63.4079 465.605 64.6252C465.272 66.97 465.054 69.2892 464.605 71.6724C461.445 88.8591 453.842 104.662 441.798 119.081C441.483 119.559 441.061 119.957 440.565 120.242C440.068 120.527 439.512 120.691 438.941 120.721C436.947 120.674 435.031 119.936 433.521 118.633C432.38 117.608 432.496 115.788 433.854 113.61Z" fill="white"/>
<path d="M434.008 96.1456C434.276 92.46 435.291 88.8677 436.993 85.5875C438.263 83.025 439.88 80.6494 441.798 78.5274C442.298 77.9637 442.72 77.7843 442.977 78.2071C443.233 78.63 442.977 79.2322 442.49 79.7831L441.99 80.3597C438.449 84.4478 436.217 89.5054 435.584 94.877C435.59 95.2688 435.551 95.6601 435.468 96.043C435.307 96.4837 435.049 96.8823 434.712 97.209C434.443 97.4012 434.136 97.209 433.918 97.209C433.995 96.6837 433.982 96.4146 434.008 96.1456Z" fill="white"/>
<path d="M445.616 85.6259C444.007 87.3957 443.029 89.6485 442.836 92.0325C442.751 92.395 442.618 92.7442 442.439 93.0704C441.657 93.711 441.273 93.4932 441.273 92.686C441.547 89.6293 442.811 86.7455 444.873 84.4727C445.36 83.973 445.757 83.8193 445.988 84.2421C446.071 84.4835 446.08 84.7442 446.014 84.9908C445.947 85.2374 445.809 85.4585 445.616 85.6259Z" fill="white"/>
</g>
<path d="M151.003 28.3767L138.997 35.2061V30.9521C138.997 30.6574 138.997 30.3499 138.997 30.0552C138.997 29.7605 138.997 29.4786 138.997 29.1967V29.043C138.562 23.418 134.295 21.2526 129.093 24.2636C126.737 25.7122 124.719 27.6476 123.173 29.9399C122.007 22.252 115.767 19.5356 108.22 23.8793C99.8402 28.7226 93.0492 40.5364 93.0492 50.1719V59.2692C93.0612 59.9969 92.8816 60.715 92.5285 61.3514C92.1755 61.9879 91.6613 62.5203 91.0375 62.8953L83.9647 67.034C82.4382 67.939 81.1728 69.2248 80.2924 70.7656C79.412 72.3063 78.9466 74.0493 78.9419 75.8238C78.9417 76.56 79.1354 77.2833 79.5037 77.9208C79.8719 78.5583 80.4017 79.0875 81.0395 79.4552C81.6774 79.8228 82.4008 80.0159 83.137 80.015C83.8732 80.0141 84.5962 79.8192 85.2332 79.4499L150.824 41.5358C152.564 40.5253 154.009 39.077 155.016 37.335C156.023 35.593 156.557 33.6177 156.564 31.6056C156.565 30.9543 156.394 30.3142 156.069 29.7496C155.745 29.185 155.277 28.7157 154.714 28.3886C154.151 28.0616 153.512 27.8883 152.86 27.8862C152.209 27.8841 151.568 28.0533 151.003 28.3767Z" fill="#E6E6E6"/>
<path d="M59.4787 26.5957L50.7529 31.6056V28.4792C50.7529 28.2614 50.7529 28.0436 50.7529 27.8257C50.7529 27.6079 50.7529 27.4029 50.7529 27.1979V27.121C50.4326 23.0336 47.3318 21.4576 43.5519 23.6487C41.8403 24.6974 40.3725 26.0997 39.2467 27.7617C38.3882 22.2008 33.8524 20.1891 28.3683 23.3539C22.2693 26.8776 17.3362 35.4368 17.3362 42.4712V49.0956C17.3316 49.6149 17.1922 50.1241 16.9316 50.5733C16.6711 51.0225 16.2983 51.3964 15.8499 51.6582L10.7246 54.6693C9.60935 55.3252 8.68537 56.2618 8.04466 57.3858C7.40397 58.5098 7.06889 59.7821 7.07285 61.0759C7.07368 61.6058 7.21256 62.1264 7.47584 62.5863C7.73912 63.0461 8.11768 63.4295 8.57423 63.6985C9.03078 63.9675 9.54955 64.1129 10.0794 64.1204C10.6093 64.1278 11.1319 63.9971 11.5959 63.7411L59.3505 36.1671C60.6159 35.435 61.6667 34.3833 62.3976 33.1172C63.1284 31.8511 63.5137 30.4152 63.5148 28.9533C63.5157 28.4802 63.3925 28.0151 63.1573 27.6045C62.9222 27.1939 62.5834 26.8522 62.1749 26.6135C61.7663 26.3749 61.3023 26.2477 60.8292 26.2445C60.356 26.2414 59.8904 26.3625 59.4787 26.5957Z" fill="#E6E6E6"/>
</svg>
