<svg width="32" height="32" viewBox="0 0 32 32" fill="none" xmlns="http://www.w3.org/2000/svg">
<path d="M25.0613 8.0625C26.9163 8.35437 28.4377 9.22937 29.6269 10.6875C30.6733 11.9794 31.3869 13.6044 31.7669 15.5625C32.1005 17.3544 32.0755 19.1456 31.6955 20.9375C31.1248 23.8956 29.9834 26.375 28.2712 28.375C26.2256 30.7919 23.6577 32 20.5664 32C19.8049 32 18.9735 31.7919 18.0693 31.375C17.4507 31.0419 16.7614 30.875 16 30.875C15.2386 30.875 14.55 31.0419 13.9307 31.375C13.0265 31.7919 12.1951 32 11.4336 32C8.34226 32 5.77444 30.7919 3.72875 28.375C2.01664 26.375 0.875226 23.8956 0.304521 20.9375C-0.0754738 19.1456 -0.100473 17.3544 0.233093 15.5625C0.613087 13.6044 1.32665 11.9794 2.37306 10.6875C3.56233 9.22937 5.08373 8.35437 6.93871 8.0625C8.08012 7.89563 9.64938 8.04187 11.6472 8.5C13.3593 8.91687 14.81 9.41687 15.9993 10C17.1886 9.41687 18.6392 8.91687 20.3514 8.5C22.3499 8.04187 23.9199 7.89563 25.0613 8.0625ZM21.1371 5.5C20.4714 6.04187 19.5907 6.4375 18.4971 6.6875C17.7357 6.89563 16.9043 7 16 7L14.93 6.9375C14.835 6.35437 14.835 5.6875 14.93 4.9375C15.1207 3.4375 15.6671 2.29188 16.5707 1.5C17.2364 0.958125 18.1171 0.5625 19.2107 0.3125C19.9721 0.104375 20.8035 0 21.7078 0L22.7778 0.0625L22.8492 1C22.8492 1.79188 22.7299 2.52063 22.4928 3.1875C22.2078 4.14563 21.7563 4.91687 21.1371 5.5Z" fill="#ED5831"/>
</svg>
