<svg width="33" height="32" viewBox="0 0 33 32" fill="none" xmlns="http://www.w3.org/2000/svg">
<path d="M13.8846 0H18.8846C19.7159 0 20.3846 0.66875 20.3846 1.5V12H25.8659C26.9784 12 27.5346 13.3438 26.7471 14.1313L17.2409 23.6437C16.7721 24.1125 16.0034 24.1125 15.5346 23.6437L6.01589 14.1313C5.22839 13.3438 5.78464 12 6.89714 12H12.3846V1.5C12.3846 0.66875 13.0534 0 13.8846 0ZM32.3846 23.5V30.5C32.3846 31.3313 31.7159 32 30.8846 32H1.88464C1.05339 32 0.384644 31.3313 0.384644 30.5V23.5C0.384644 22.6687 1.05339 22 1.88464 22H11.0534L14.1159 25.0625C15.3721 26.3188 17.3971 26.3188 18.6534 25.0625L21.7159 22H30.8846C31.7159 22 32.3846 22.6687 32.3846 23.5ZM24.6346 29C24.6346 28.3125 24.0721 27.75 23.3846 27.75C22.6971 27.75 22.1346 28.3125 22.1346 29C22.1346 29.6875 22.6971 30.25 23.3846 30.25C24.0721 30.25 24.6346 29.6875 24.6346 29ZM28.6346 29C28.6346 28.3125 28.0721 27.75 27.3846 27.75C26.6971 27.75 26.1346 28.3125 26.1346 29C26.1346 29.6875 26.6971 30.25 27.3846 30.25C28.0721 30.25 28.6346 29.6875 28.6346 29Z" fill="#ED5831"/>
</svg>
