<svg width="40" height="32" viewBox="0 0 40 32" fill="none" xmlns="http://www.w3.org/2000/svg">
<path d="M36.1026 0H3.28205C1.47009 0 0 1.53571 0 3.42857V28.5714C0 30.4643 1.47009 32 3.28205 32H36.1026C37.9145 32 39.3846 30.4643 39.3846 28.5714V3.42857C39.3846 1.53571 37.9145 0 36.1026 0ZM12.0342 6.85714C14.4479 6.85714 16.4103 8.90714 16.4103 11.4286C16.4103 13.95 14.4479 16 12.0342 16C9.62051 16 7.65812 13.95 7.65812 11.4286C7.65812 8.90714 9.62051 6.85714 12.0342 6.85714ZM19.6923 23.7714C19.6923 24.5286 19.0085 25.1429 18.1607 25.1429H5.90769C5.05983 25.1429 4.37607 24.5286 4.37607 23.7714V22.4C4.37607 20.1286 6.43419 18.2857 8.97094 18.2857H9.31282C10.1538 18.65 11.0701 18.8571 12.0342 18.8571C12.9983 18.8571 13.9214 18.65 14.7556 18.2857H15.0974C17.6342 18.2857 19.6923 20.1286 19.6923 22.4V23.7714ZM35.0085 20C35.0085 20.3143 34.7624 20.5714 34.4615 20.5714H24.6154C24.3145 20.5714 24.0684 20.3143 24.0684 20V18.8571C24.0684 18.5429 24.3145 18.2857 24.6154 18.2857H34.4615C34.7624 18.2857 35.0085 18.5429 35.0085 18.8571V20ZM35.0085 15.4286C35.0085 15.7429 34.7624 16 34.4615 16H24.6154C24.3145 16 24.0684 15.7429 24.0684 15.4286V14.2857C24.0684 13.9714 24.3145 13.7143 24.6154 13.7143H34.4615C34.7624 13.7143 35.0085 13.9714 35.0085 14.2857V15.4286ZM35.0085 10.8571C35.0085 11.1714 34.7624 11.4286 34.4615 11.4286H24.6154C24.3145 11.4286 24.0684 11.1714 24.0684 10.8571V9.71429C24.0684 9.4 24.3145 9.14286 24.6154 9.14286H34.4615C34.7624 9.14286 35.0085 9.4 35.0085 9.71429V10.8571Z" fill="#ED5831"/>
</svg>
