<svg width="312" height="322" viewBox="0 0 312 322" fill="none" xmlns="http://www.w3.org/2000/svg">
<path d="M201.015 5.32117C114.651 -15.8436 27.4859 37.0084 6.32117 123.373C-14.8436 209.737 24.6355 295.835 111 317C197.364 338.165 284.529 285.313 305.694 198.948C326.859 112.584 287.38 26.4859 201.015 5.32117ZM142.915 242.403C131.774 239.672 124.953 228.422 127.683 217.281C130.413 206.139 141.663 199.318 152.805 202.048C163.946 204.779 170.768 216.029 168.037 227.17C165.307 238.312 154.057 245.133 142.915 242.403ZM162.694 161.694C129.263 153.501 95.5213 173.96 87.3286 207.392C79.1359 240.823 99.5951 274.564 133.026 282.757C66.164 266.372 25.2458 198.888 41.6312 132.026C58.0166 65.164 125.5 24.2458 192.362 40.6312C225.793 48.8239 246.252 82.5656 238.06 115.997C229.867 149.428 196.125 169.887 162.694 161.694ZM182.473 80.9855C171.331 78.2551 160.081 85.0764 157.351 96.218C154.621 107.36 161.442 118.609 172.583 121.34C183.725 124.07 194.975 117.249 197.705 106.107C200.436 94.9657 193.614 83.7159 182.473 80.9855Z" fill="#290608"/>
</svg>
